<svg width="28" height="28" viewBox="0 0 28 28" fill="none" xmlns="http://www.w3.org/2000/svg">
<circle cx="14" cy="14" r="13.5" stroke="currentColor"/>
<path d="M14 7C12.0983 7 11.8609 7.00875 11.1142 7.042C10.3687 7.077 9.86125 7.19425 9.415 7.3675C8.95475 7.546 8.56392 7.78575 8.17483 8.17483C7.78575 8.56392 7.54542 8.95417 7.3675 9.415C7.19425 9.86125 7.07642 10.3687 7.042 11.1142C7.007 11.8609 7 12.0983 7 14C7 15.9017 7.00875 16.1391 7.042 16.8857C7.077 17.6307 7.19425 18.1388 7.3675 18.585C7.546 19.0447 7.78575 19.4361 8.17483 19.8252C8.56392 20.2137 8.95417 20.4546 9.415 20.6325C9.86183 20.8052 10.3693 20.9236 11.1142 20.958C11.8609 20.993 12.0983 21 14 21C15.9017 21 16.1391 20.9912 16.8857 20.958C17.6307 20.923 18.1388 20.8052 18.585 20.6325C19.0447 20.454 19.4361 20.2137 19.8252 19.8252C20.2137 19.4361 20.4546 19.0464 20.6325 18.585C20.8052 18.1388 20.9236 17.6307 20.958 16.8857C20.993 16.1391 21 15.9017 21 14C21 12.0983 20.9912 11.8609 20.958 11.1142C20.923 10.3693 20.8052 9.86067 20.6325 9.415C20.454 8.95475 20.2137 8.56392 19.8252 8.17483C19.4361 7.78575 19.0464 7.54542 18.585 7.3675C18.1388 7.19425 17.6307 7.07642 16.8857 7.042C16.1391 7.007 15.9017 7 14 7ZM14 8.26C15.8684 8.26 16.0912 8.26933 16.8292 8.30142C17.5117 8.3335 17.8821 8.44667 18.1282 8.5435C18.4561 8.67008 18.6882 8.82175 18.9344 9.06617C19.1788 9.31117 19.3305 9.54392 19.4571 9.87175C19.5527 10.1179 19.6671 10.4883 19.698 11.1708C19.7312 11.9093 19.7388 12.131 19.7388 14C19.7388 15.869 19.7301 16.0912 19.6957 16.8292C19.6601 17.5117 19.5463 17.8821 19.4501 18.1282C19.3194 18.4561 19.1707 18.6882 18.9257 18.9344C18.6812 19.1788 18.445 19.3305 18.1207 19.4571C17.8757 19.5527 17.4994 19.6671 16.8169 19.698C16.0737 19.7312 15.855 19.7388 13.9825 19.7388C12.1094 19.7388 11.8907 19.7301 11.1481 19.6957C10.465 19.6601 10.0887 19.5463 9.84375 19.4501C9.51183 19.3194 9.28375 19.1707 9.03933 18.9257C8.79375 18.6812 8.63683 18.445 8.51433 18.1207C8.41808 17.8757 8.30492 17.4994 8.26933 16.8169C8.24308 16.0819 8.23375 15.855 8.23375 13.9912C8.23375 12.1269 8.24308 11.8994 8.26933 11.1557C8.30492 10.4732 8.41808 10.0975 8.51433 9.8525C8.63683 9.52 8.79375 9.2925 9.03933 9.04692C9.28375 8.8025 9.51183 8.645 9.84375 8.52308C10.0887 8.42625 10.4568 8.3125 11.1393 8.2775C11.8831 8.25125 12.1018 8.2425 13.9737 8.2425L14 8.26ZM14 10.4055C12.0138 10.4055 10.4055 12.0155 10.4055 14C10.4055 15.9862 12.0155 17.5945 14 17.5945C15.9862 17.5945 17.5945 15.9845 17.5945 14C17.5945 12.0138 15.9845 10.4055 14 10.4055ZM14 16.3333C12.7108 16.3333 11.6667 15.2892 11.6667 14C11.6667 12.7108 12.7108 11.6667 14 11.6667C15.2892 11.6667 16.3333 12.7108 16.3333 14C16.3333 15.2892 15.2892 16.3333 14 16.3333ZM18.5768 10.2637C18.5768 10.7275 18.2 11.1037 17.7368 11.1037C17.2731 11.1037 16.8968 10.7269 16.8968 10.2637C16.8968 9.80058 17.2737 9.42433 17.7368 9.42433C18.1994 9.42375 18.5768 9.80058 18.5768 10.2637Z" fill="white"/>
</svg>
