<svg width="28" height="28" viewBox="0 0 28 28" fill="none" xmlns="http://www.w3.org/2000/svg">
<path d="M21.6215 9.24195C21.0489 9.49522 20.4417 9.66155 19.82 9.73545C20.4753 9.34352 20.9658 8.72671 21.2 7.99994C20.585 8.36594 19.9107 8.62244 19.208 8.76119C18.7359 8.25613 18.1102 7.92117 17.4282 7.80838C16.7461 7.6956 16.0459 7.81131 15.4364 8.13753C14.8269 8.46376 14.3423 8.98221 14.0578 9.61229C13.7734 10.2424 13.705 10.9488 13.8635 11.6217C12.6163 11.5592 11.3962 11.2351 10.2824 10.6704C9.16866 10.1058 8.18607 9.31323 7.39848 8.3442C7.1197 8.82303 6.97319 9.36736 6.97398 9.92144C6.97398 11.0089 7.52748 11.9697 8.36898 12.5322C7.87099 12.5165 7.38395 12.382 6.94848 12.1399V12.1789C6.94863 12.9032 7.19926 13.6052 7.65786 14.1657C8.11647 14.7263 8.75484 15.1111 9.46473 15.2547C9.00244 15.38 8.51771 15.3984 8.04723 15.3087C8.24738 15.9321 8.63748 16.4773 9.16292 16.868C9.68836 17.2587 10.3228 17.4753 10.9775 17.4874C10.3268 17.9984 9.58186 18.3762 8.78514 18.5991C7.98842 18.822 7.15557 18.8856 6.33423 18.7864C7.768 19.7085 9.43705 20.198 11.1417 20.1964C16.9115 20.1964 20.0667 15.4167 20.0667 11.2714C20.0667 11.1364 20.063 10.9999 20.057 10.8664C20.6711 10.4226 21.2012 9.87271 21.6222 9.24269L21.6215 9.24195Z" fill="white"/>
<circle cx="14" cy="14" r="13.5" stroke="white"/>
</svg>
